<svg width="512" height="512" viewBox="0 0 512 512" fill="none" xmlns="http://www.w3.org/2000/svg">
  <rect width="512" height="512" rx="108" fill="white"/>
  <g transform="translate(63,92) scale(14)" stroke="#131313" stroke-width="1.14" stroke-linecap="round" stroke-linejoin="round" fill="none">
    <path d="M10.4405 17.0675H3.50003C1.84317 17.0675 0.500029 15.7244 0.500029 14.0675V3.50003C0.500029 1.84317 1.84317 0.500029 3.50003 0.500029H14.0675C15.7244 0.500029 17.0675 1.84317 17.0675 3.50003V6.29865"/>
    <path d="M27.0079 9.29861V19.8661C27.0079 21.5229 25.6648 22.8661 24.0079 22.8661H13.4405C11.7836 22.8661 10.4405 21.5229 10.4405 19.8661V9.29861C10.4405 7.64176 11.7836 6.29861 13.4405 6.29861H24.0079C25.6648 6.29861 27.0079 7.64176 27.0079 9.29861Z"/>
  </g>
</svg>
