<svg width="111" height="22" viewBox="0 0 111 22" fill="none" xmlns="http://www.w3.org/2000/svg">
<path d="M4.78895 15.5006C3.88176 15.5006 3.06179 15.3003 2.32905 14.8997C1.60504 14.4991 1.03368 13.9462 0.614975 13.2408C0.204992 12.5267 0 11.7299 0 10.8503C0 9.97079 0.204992 9.17833 0.614975 8.47296C1.03368 7.75887 1.6094 7.20153 2.34214 6.80095C3.07488 6.40037 3.89484 6.20007 4.80204 6.20007C5.48244 6.20007 6.1105 6.31328 6.68622 6.5397C7.26194 6.76612 7.75043 7.09703 8.15169 7.53245L7.53672 8.14639C6.82143 7.4236 5.91859 7.0622 4.82821 7.0622C4.1042 7.0622 3.44561 7.22766 2.85244 7.55858C2.25927 7.8895 1.79259 8.34233 1.45239 8.91708C1.12091 9.49183 0.955174 10.1363 0.955174 10.8503C0.955174 11.5644 1.12091 12.2088 1.45239 12.7836C1.79259 13.3583 2.25927 13.8112 2.85244 14.1421C3.44561 14.473 4.1042 14.6385 4.82821 14.6385C5.92731 14.6385 6.83015 14.2727 7.53672 13.5412L8.15169 14.1552C7.75043 14.5906 7.25758 14.9259 6.67313 15.161C6.09741 15.3874 5.46935 15.5006 4.78895 15.5006Z" fill="#131313"/>
<path d="M14.028 15.5006C13.1208 15.5006 12.2965 15.3003 11.555 14.8997C10.8223 14.4904 10.2466 13.9331 9.82785 13.2277C9.41786 12.5223 9.21287 11.7299 9.21287 10.8503C9.21287 9.97079 9.41786 9.17833 9.82785 8.47296C10.2466 7.76758 10.8223 7.2146 11.555 6.81401C12.2965 6.40472 13.1208 6.20007 14.028 6.20007C14.9352 6.20007 15.7508 6.40037 16.4748 6.80095C17.2075 7.20153 17.7833 7.75887 18.202 8.47296C18.6207 9.17833 18.83 9.97079 18.83 10.8503C18.83 11.7299 18.6207 12.5267 18.202 13.2408C17.7833 13.9462 17.2075 14.4991 16.4748 14.8997C15.7508 15.3003 14.9352 15.5006 14.028 15.5006ZM14.028 14.6385C14.752 14.6385 15.4062 14.4774 15.9907 14.1552C16.5751 13.8242 17.0331 13.3714 17.3646 12.7967C17.696 12.2132 17.8618 11.5644 17.8618 10.8503C17.8618 10.1363 17.696 9.49183 17.3646 8.91708C17.0331 8.33362 16.5751 7.88079 15.9907 7.55858C15.4062 7.22766 14.752 7.0622 14.028 7.0622C13.304 7.0622 12.6454 7.22766 12.0522 7.55858C11.4678 7.88079 11.0055 8.33362 10.6653 8.91708C10.3338 9.49183 10.168 10.1363 10.168 10.8503C10.168 11.5644 10.3338 12.2132 10.6653 12.7967C11.0055 13.3714 11.4678 13.8242 12.0522 14.1552C12.6454 14.4774 13.304 14.6385 14.028 14.6385Z" fill="#131313"/>
<path d="M28.6548 6.27845V15.4222H27.8567L21.9686 8.0027V15.4222H21.0003V6.27845H21.7985L27.6996 13.698V6.27845H28.6548Z" fill="#131313"/>
<path d="M34.1697 15.5006C33.4893 15.5006 32.835 15.3917 32.207 15.174C31.5876 14.9563 31.1079 14.669 30.7677 14.3119L31.1471 13.5673C31.4786 13.8983 31.9191 14.1682 32.4687 14.3772C33.0182 14.5775 33.5852 14.6777 34.1697 14.6777C34.9896 14.6777 35.6046 14.5296 36.0146 14.2335C36.4246 13.9287 36.6296 13.5369 36.6296 13.0579C36.6296 12.6922 36.5162 12.4004 36.2894 12.1827C36.0713 11.965 35.8009 11.7996 35.4781 11.6863C35.1554 11.5644 34.7061 11.4338 34.1304 11.2945C33.4413 11.1203 32.8917 10.9548 32.4817 10.7981C32.0718 10.6326 31.7185 10.3844 31.4219 10.0535C31.134 9.72261 30.9901 9.27412 30.9901 8.70808C30.9901 8.24654 31.1122 7.82854 31.3565 7.45408C31.6007 7.07091 31.9758 6.76612 32.4817 6.5397C32.9877 6.31328 33.6157 6.20007 34.3659 6.20007C34.8893 6.20007 35.3996 6.27409 35.8968 6.42214C36.4028 6.56147 36.8389 6.75741 37.2053 7.00995L36.8782 7.78064C36.4943 7.5281 36.0844 7.34087 35.6482 7.21895C35.2121 7.08833 34.7846 7.02301 34.3659 7.02301C33.5634 7.02301 32.9572 7.17976 32.5472 7.49326C32.1459 7.79806 31.9453 8.19429 31.9453 8.68196C31.9453 9.04771 32.0543 9.34379 32.2724 9.57021C32.4992 9.78792 32.7783 9.95773 33.1098 10.0796C33.45 10.1929 33.9036 10.3191 34.4706 10.4585C35.1423 10.6239 35.6831 10.7894 36.0931 10.9548C36.5118 11.1116 36.8651 11.3554 37.1529 11.6863C37.4408 12.0086 37.5847 12.4483 37.5847 13.0057C37.5847 13.4672 37.4582 13.8896 37.2053 14.2727C36.961 14.6472 36.5816 14.9476 36.0669 15.174C35.5523 15.3917 34.9198 15.5006 34.1697 15.5006Z" fill="#131313"/>
<path d="M41.3461 7.11445L38.1273 7.11445V6.27845L45.5332 6.27845V7.11445H42.3144V15.4222H41.3461V7.11445Z" fill="#131313"/>
<path d="M53.3345 15.4222L51.2409 12.4832C51.0054 12.5093 50.7612 12.5223 50.5082 12.5223H48.0483V15.4222H47.08V6.27845H50.5082C51.6771 6.27845 52.593 6.55712 53.256 7.11445C53.9189 7.67179 54.2504 8.43812 54.2504 9.41346C54.2504 10.1275 54.0672 10.7328 53.7008 11.2292C53.3432 11.7168 52.8285 12.0695 52.1569 12.2872L54.3943 15.4222H53.3345ZM50.482 11.6994C51.3892 11.6994 52.0827 11.4991 52.5625 11.0985C53.0422 10.6979 53.2821 10.1363 53.2821 9.41346C53.2821 8.67325 53.0422 8.1072 52.5625 7.71533C52.0827 7.31474 51.3892 7.11445 50.482 7.11445H48.0483V11.6994H50.482Z" fill="#131313"/>
<path d="M60.2255 15.5006C59.0392 15.5006 58.1146 15.161 57.4516 14.4817C56.7887 13.8025 56.4572 12.8141 56.4572 11.5165V6.27845H57.4254V11.4773C57.4254 12.5398 57.6653 13.3322 58.1451 13.8547C58.6249 14.3772 59.3183 14.6385 60.2255 14.6385C61.1415 14.6385 61.8393 14.3772 62.3191 13.8547C62.7989 13.3322 63.0387 12.5398 63.0387 11.4773V6.27845L63.9808 6.27845V11.5165C63.9808 12.8141 63.6493 13.8025 62.9864 14.4817C62.3322 15.161 61.4119 15.5006 60.2255 15.5006Z" fill="#131313"/>
<path d="M70.8763 15.5006C69.9691 15.5006 69.1491 15.3003 68.4164 14.8997C67.6924 14.4991 67.121 13.9462 66.7023 13.2408C66.2923 12.5267 66.0873 11.7299 66.0873 10.8503C66.0873 9.97079 66.2923 9.17833 66.7023 8.47296C67.121 7.75887 67.6967 7.20153 68.4295 6.80095C69.1622 6.40037 69.9822 6.20007 70.8894 6.20007C71.5698 6.20007 72.1978 6.31328 72.7736 6.5397C73.3493 6.76612 73.8378 7.09703 74.239 7.53245L73.624 8.14639C72.9088 7.4236 72.0059 7.0622 70.9155 7.0622C70.1915 7.0622 69.5329 7.22766 68.9398 7.55858C68.3466 7.8895 67.8799 8.34233 67.5397 8.91708C67.2082 9.49183 67.0425 10.1363 67.0425 10.8503C67.0425 11.5644 67.2082 12.2088 67.5397 12.7836C67.8799 13.3583 68.3466 13.8112 68.9398 14.1421C69.5329 14.473 70.1915 14.6385 70.9155 14.6385C72.0146 14.6385 72.9175 14.2727 73.624 13.5412L74.239 14.1552C73.8378 14.5906 73.3449 14.9259 72.7605 15.161C72.1848 15.3874 71.5567 15.5006 70.8763 15.5006Z" fill="#131313"/>
<path d="M77.9676 7.11445H74.7488V6.27845L82.1547 6.27845V7.11445L78.9359 7.11445V15.4222H77.9676V7.11445Z" fill="#131313"/>
<path fill-rule="evenodd" clip-rule="evenodd" d="M86.164 1.40439C86.164 1.14585 86.3674 0.936263 86.6184 0.936263L99.7333 0.936263C99.9843 0.936263 100.188 1.14585 100.188 1.40439V14.9133C100.188 15.1719 99.9843 15.3815 99.7333 15.3815L86.6184 15.3815C86.3674 15.3815 86.164 15.1719 86.164 14.9133V1.40439ZM86.6184 0C85.8654 0 85.255 0.628769 85.255 1.40439V14.9133C85.255 15.689 85.8654 16.3177 86.6184 16.3177H94.2147V20.2968C94.2147 21.0725 94.8251 21.7012 95.5781 21.7012L108.693 21.7012C109.446 21.7012 110.056 21.0725 110.056 20.2968V6.78791C110.056 6.01228 109.446 5.38351 108.693 5.38351L101.097 5.38351V1.40439C101.097 0.628769 100.486 0 99.7333 0L86.6184 0ZM101.097 6.31977V14.9133C101.097 15.689 100.486 16.3177 99.7333 16.3177L95.1236 16.3177V20.2968C95.1236 20.5554 95.3271 20.765 95.5781 20.765L108.693 20.765C108.944 20.765 109.147 20.5554 109.147 20.2968V6.78791C109.147 6.52936 108.944 6.31977 108.693 6.31977L101.097 6.31977Z" fill="#131313"/>
</svg>
